<svg width="18" height="18" viewBox="0 0 18 18" fill="none" xmlns="http://www.w3.org/2000/svg">
<g clip-path="url(#clip0)">
<path d="M0.00617414 17.3418C0.00394062 17.508 0.0688381 17.6681 0.186071 17.786C0.303303 17.9038 0.463102 17.9695 0.629322 17.9682L3.67095 17.9712C3.75594 17.9552 3.83326 17.9115 3.89104 17.8471L10.6284 11.1099C13.127 11.8824 15.8304 10.852 17.1809 8.61243C18.5314 6.37287 18.1811 3.50109 16.3318 1.65174C14.4826 -0.1976 11.6107 -0.547902 9.37111 0.802646C7.13155 2.15319 6.10116 4.85666 6.87378 7.35525L6.20401 8.02487C6.16466 8.06534 6.14428 8.12061 6.14819 8.17686L6.30017 9.82621C6.30492 9.88273 6.28454 9.93828 6.24449 9.97833C6.20443 10.0184 6.14889 10.0388 6.09236 10.034L4.58244 9.89445C4.52619 9.89027 4.47079 9.91078 4.43087 9.9507C4.39096 9.99061 4.37044 10.0459 4.37477 10.1023L4.51433 11.6122C4.51907 11.6686 4.4987 11.7243 4.45864 11.7643C4.41859 11.8042 4.3629 11.8246 4.30652 11.8199L2.79659 11.6803C2.74035 11.6761 2.68494 11.6966 2.64503 11.7365C2.60511 11.7765 2.5846 11.8319 2.58892 11.8881L2.72527 13.4042C2.73002 13.4599 2.71006 13.5147 2.67057 13.5542C2.63107 13.5936 2.57622 13.6137 2.52068 13.6088L0.861973 13.46C0.806427 13.4553 0.751719 13.4758 0.713059 13.5158L0.0868419 14.1607C0.0311569 14.2192 3.46535e-05 14.297 3.46464e-05 14.3778L0.00617414 17.3418ZM12.8452 2.9928C13.2791 2.5589 13.9316 2.42911 14.4985 2.66399C15.0655 2.89874 15.4351 3.45196 15.4351 4.06562C15.4351 4.67928 15.0655 5.23236 14.4985 5.46725C13.9316 5.70213 13.2791 5.5722 12.8452 5.1383C12.2531 4.54571 12.2531 3.58538 12.8452 2.9928Z" fill="#1D1D1D"/>
<path d="M0.226273 17.8255L12.8824 5.16942C13.4779 5.73116 14.4123 5.71763 14.9912 5.13872C15.5699 4.55981 15.5836 3.62558 15.0217 3.03007L16.3674 1.68441C16.5068 1.82704 16.6402 1.97902 16.7704 2.14022C18.3188 4.09521 18.4137 6.83064 17.0046 8.88835C15.5956 10.9461 13.011 11.8465 10.6284 11.1099L3.89105 17.8471C3.83327 17.9115 3.75595 17.9552 3.67096 17.9712L0.62933 17.9682C0.48251 17.9693 0.339737 17.9189 0.226273 17.8255Z" fill="#1D1D1D"/>
<path d="M9.35939 9.92406C9.48472 9.92406 9.59777 9.9997 9.64578 10.1155C9.69378 10.2314 9.66727 10.3647 9.57865 10.4533L4.75117 15.2808C4.6733 15.361 4.55816 15.3931 4.44986 15.3648C4.3417 15.3363 4.25712 15.2519 4.22879 15.1436C4.20032 15.0354 4.23242 14.9203 4.31281 14.8424L9.14014 10.0149C9.1982 9.95672 9.27719 9.92392 9.35939 9.92406Z" fill="white"/>
<path d="M3.41053 15.8136C3.41053 15.9847 3.54926 16.1236 3.7205 16.1236C3.89174 16.1236 4.03061 15.9847 4.03061 15.8136C4.03061 15.6424 3.89174 15.5035 3.7205 15.5035C3.54926 15.5035 3.41053 15.6424 3.41053 15.8136Z" fill="white"/>
</g>
<defs>
<clipPath id="clip0">
<rect width="18" height="18" fill="white" transform="translate(18 18) rotate(-180)"/>
</clipPath>
</defs>
</svg>
