<svg width="123" height="39" viewBox="0 0 123 39" fill="none" xmlns="http://www.w3.org/2000/svg">
<g clip-path="url(#clip0)">
<path d="M0.0116845 33.7568C0.00746925 34.0707 0.130051 34.3731 0.35149 34.5959C0.572929 34.8183 0.874771 34.9425 1.18874 34.9399L6.93404 34.9457C7.09458 34.9154 7.24063 34.8328 7.34977 34.7113L20.0759 21.9854C24.7955 23.4445 29.9018 21.4982 32.4528 17.268C35.0039 13.0377 34.3422 7.61321 30.849 4.12C27.356 0.626796 21.9313 -0.0348865 17.701 2.51615C13.4707 5.06718 11.5244 10.1737 12.9838 14.8933L11.7187 16.1581C11.6444 16.2346 11.6059 16.339 11.6133 16.4452L11.9003 19.5607C11.9093 19.6674 11.8708 19.7723 11.7952 19.848C11.7195 19.9237 11.6146 19.9621 11.5078 19.9532L8.65573 19.6896C8.5495 19.6817 8.44484 19.7204 8.36944 19.7958C8.29405 19.8712 8.2553 19.9756 8.26347 20.0821L8.52709 22.9342C8.53605 23.0407 8.49756 23.1459 8.4219 23.2215C8.34625 23.2969 8.24106 23.3354 8.13456 23.3264L5.28247 23.0628C5.17623 23.0549 5.07158 23.0937 4.99618 23.1691C4.92079 23.2445 4.88204 23.3491 4.89021 23.4553L5.14776 26.319C5.15673 26.4242 5.11903 26.5278 5.04442 26.6024C4.96982 26.6768 4.86622 26.7147 4.7613 26.7055L1.62819 26.4245C1.52327 26.4155 1.41993 26.4543 1.34691 26.5299L0.164055 27.7481C0.0588728 27.8586 8.83448e-05 28.0054 8.83314e-05 28.158L0.0116845 33.7568ZM24.2633 6.65311C25.0829 5.83352 26.3153 5.58836 27.3861 6.03203C28.4572 6.47543 29.1552 7.52041 29.1552 8.67954C29.1552 9.83867 28.4572 10.8834 27.3861 11.3271C26.3153 11.7707 25.0829 11.5253 24.2633 10.7057C23.1447 9.58639 23.1447 7.77243 24.2633 6.65311Z" fill="#F29C1F"/>
<path d="M0.427418 34.6705L24.3334 10.7645C25.4582 11.8256 27.2232 11.8 28.3167 10.7065C29.4099 9.61302 29.4357 7.84836 28.3744 6.7235L30.9162 4.18169C31.1796 4.45111 31.4316 4.73819 31.6775 5.04267C34.6021 8.73543 34.7814 13.9024 32.1199 17.7891C29.4584 21.6759 24.5764 23.3768 20.0759 21.9854L7.34977 34.7113C7.24063 34.8328 7.09459 34.9154 6.93404 34.9457L1.18875 34.9399C0.911419 34.942 0.641739 34.8468 0.427418 34.6705Z" fill="#F0C419"/>
<path d="M17.6789 19.7454C17.9156 19.7454 18.1291 19.8882 18.2198 20.107C18.3105 20.3258 18.2604 20.5776 18.093 20.745L8.97445 29.8636C8.82735 30.0151 8.60987 30.0758 8.4053 30.0223C8.201 29.9685 8.04124 29.809 7.98773 29.6044C7.93395 29.4001 7.99458 29.1826 8.14643 29.0355L17.2647 19.917C17.3744 19.807 17.5236 19.7451 17.6789 19.7454Z" fill="white"/>
<path d="M6.44213 30.8701C6.44213 31.1933 6.70417 31.4556 7.02763 31.4556C7.35109 31.4556 7.61339 31.1933 7.61339 30.8701C7.61339 30.5466 7.35109 30.2843 7.02763 30.2843C6.70417 30.2843 6.44213 30.5466 6.44213 30.8701Z" fill="white"/>
</g>
<path d="M54.5508 21.5078H56.7383L56.1777 24.6934H53.9902L53.2383 29H49.3828L50.1348 24.6934H42.2324L42.5059 22L52.6641 9.09375H56.6973L54.5508 21.5078ZM46.5117 21.4805L50.6953 21.5078L52.0488 14.4258L51.6934 14.918L46.5117 21.4805ZM66.1621 23.1074L64.3711 24.666L63.6191 29H59.7637L63.4004 8H67.2695L65.2734 19.4023L66.0254 18.5957L70.4141 14.207H75.3633L68.8965 20.5645L73.0117 29H68.7871L66.1621 23.1074ZM83.1738 29.2734C81.8796 29.2643 80.7311 28.9499 79.7285 28.3301C78.735 27.7012 77.9922 26.8444 77.5 25.7598C77.0078 24.666 76.8164 23.4629 76.9258 22.1504L76.9668 21.6035C77.1035 20.1634 77.5228 18.8418 78.2246 17.6387C78.9264 16.4355 79.8288 15.5104 80.9316 14.8633C82.0345 14.207 83.2559 13.8971 84.5957 13.9336C86.5007 13.9701 87.9408 14.6719 88.916 16.0391C89.9004 17.3971 90.2741 19.1198 90.0371 21.207L89.8184 22.8887H80.7539C80.7175 23.8457 80.9499 24.6113 81.4512 25.1855C81.9525 25.7598 82.6361 26.056 83.502 26.0742C84.9056 26.1107 86.1361 25.5684 87.1934 24.4473L88.957 26.6348C88.401 27.4733 87.599 28.1296 86.5508 28.6035C85.5026 29.0684 84.377 29.2917 83.1738 29.2734ZM84.4043 17.1191C83.6934 17.1009 83.0599 17.3242 82.5039 17.7891C81.957 18.2539 81.4648 19.0605 81.0273 20.209H86.332L86.4141 19.8535C86.4688 19.4889 86.4733 19.1426 86.4277 18.8145C86.3366 18.2858 86.1133 17.8757 85.7578 17.584C85.4023 17.2832 84.9512 17.1283 84.4043 17.1191ZM99.0508 23.3672L103.275 14.207H107.568L98.9141 31.2285C98.2943 32.5319 97.5651 33.4889 96.7266 34.0996C95.8971 34.7103 94.9356 35.0156 93.8418 35.0156C93.4134 35.0156 92.7936 34.9199 91.9824 34.7285L92.2695 31.7207L92.8027 31.748C94.0606 31.7845 94.9811 31.3242 95.5645 30.3672L96.4121 28.7949L93.9922 14.207H97.9844L99.0508 23.3672ZM117.129 24.8301C117.275 24.1009 116.769 23.5723 115.611 23.2441L114.367 22.9297C111.423 22.1185 109.992 20.6875 110.074 18.6367C110.12 17.2422 110.735 16.1074 111.92 15.2324C113.114 14.3483 114.549 13.9154 116.227 13.9336C117.895 13.9518 119.243 14.3939 120.273 15.2598C121.303 16.1257 121.827 17.2786 121.846 18.7188L118.018 18.7051C118.036 17.4382 117.407 16.7956 116.131 16.7773C115.529 16.7773 115.005 16.9277 114.559 17.2285C114.121 17.5293 113.852 17.9349 113.752 18.4453C113.615 19.1745 114.167 19.6895 115.406 19.9902L115.953 20.1133C117.211 20.4141 118.173 20.7604 118.838 21.1523C119.503 21.5352 120.014 22.0137 120.369 22.5879C120.734 23.1621 120.902 23.8503 120.875 24.6523C120.848 25.5911 120.542 26.4115 119.959 27.1133C119.385 27.8151 118.592 28.3574 117.58 28.7402C116.577 29.123 115.52 29.3008 114.408 29.2734C112.768 29.2552 111.4 28.7858 110.307 27.8652C109.213 26.9355 108.657 25.737 108.639 24.2695L112.275 24.2969C112.312 25.7096 113.068 26.4251 114.545 26.4434C115.256 26.4434 115.839 26.2975 116.295 26.0059C116.76 25.7142 117.038 25.3223 117.129 24.8301Z" fill="#1D1D1D"/>
<defs>
<clipPath id="clip0">
<rect width="34" height="34" fill="white" transform="translate(34 35) rotate(-180)"/>
</clipPath>
</defs>
</svg>