<svg width="18" height="18" viewBox="0 0 18 18" fill="none" xmlns="http://www.w3.org/2000/svg">
<g clip-path="url(#clip0)">
<path d="M7.93451 1.66997C7.7859 1.60485 7.61051 1.63561 7.49185 1.74829L3.27874 5.72734H0.409104C0.182979 5.72734 0 5.91032 0 6.13641V11.8637C0 12.0898 0.182979 12.2728 0.409104 12.2728H3.27874L7.49189 16.2518C7.5694 16.3253 7.67046 16.3637 7.77275 16.3637C7.82747 16.3637 7.88262 16.3529 7.93455 16.3301C8.08478 16.2658 8.18185 16.118 8.18185 15.9546V2.04552C8.18181 1.8821 8.08474 1.73429 7.93451 1.66997ZM7.36364 15.0054L3.72217 11.5664C3.64627 11.4945 3.54559 11.4546 3.44131 11.4546H0.81817V6.54547H3.44131C3.54559 6.54547 3.64627 6.50551 3.72217 6.4336L7.36364 2.99474V15.0054Z" fill="#1D1D1D"/>
<path d="M14.2695 1.71423C14.0849 1.58118 13.8296 1.62276 13.6982 1.80531C13.5656 1.98829 13.6063 2.24399 13.7893 2.37661C15.9138 3.9155 17.1818 6.39164 17.1818 8.99998C17.1818 11.6083 15.9138 14.0845 13.7893 15.6233C13.6063 15.756 13.5656 16.0117 13.6982 16.1946C13.7781 16.3049 13.9031 16.3636 14.0298 16.3636C14.1129 16.3636 14.1968 16.3385 14.2695 16.2857C16.6054 14.5934 18 11.8696 18 8.99998C18 6.13034 16.6054 3.40652 14.2695 1.71423Z" fill="#1D1D1D"/>
<path d="M12.043 4.1537C11.8532 4.03385 11.5995 4.091 11.4789 4.28234C11.3587 4.47329 11.4162 4.7258 11.6075 4.84642C13.0486 5.7533 13.9091 7.30615 13.9091 9.00005C13.9091 10.694 13.0485 12.2468 11.6075 13.1537C11.4162 13.2743 11.3586 13.5268 11.4789 13.7178C11.5568 13.8416 11.6898 13.9091 11.8257 13.9091C11.9 13.9091 11.9755 13.8888 12.043 13.8464C13.7237 12.7886 14.7273 10.9772 14.7273 9.00009C14.7273 7.02295 13.7237 5.21161 12.043 4.1537Z" fill="#1D1D1D"/>
<path d="M10.4606 7.03571C10.2792 6.90029 10.0231 6.93864 9.88809 7.11921C9.75305 7.30058 9.7906 7.55708 9.97158 7.69169C10.3943 8.00649 10.6363 8.48309 10.6363 9.00008C10.6363 9.51703 10.3942 9.99364 9.97158 10.3085C9.7906 10.4431 9.75305 10.6996 9.88809 10.881C9.9684 10.9888 10.0914 11.0456 10.2165 11.0456C10.3012 11.0456 10.3871 11.0192 10.4606 10.9644C11.0922 10.4943 11.4546 9.77794 11.4546 9.00008C11.4546 8.22222 11.0922 7.50595 10.4606 7.03571Z" fill="#1D1D1D"/>
</g>
<defs>
<clipPath id="clip0">
<rect width="18" height="18" fill="white"/>
</clipPath>
</defs>
</svg>
