<svg width="45" height="45" viewBox="0 0 45 45" fill="none" xmlns="http://www.w3.org/2000/svg">
<g clip-path="url(#clip0)">
<path d="M28.038 29.2656C27.9395 29.3191 27.8314 29.3445 27.7242 29.3445C27.5537 29.3445 27.3849 29.2786 27.2584 29.1521L22.6933 24.5871C22.5685 24.4623 22.5 24.2936 22.5 24.1204C22.5 24.2936 22.4314 24.4623 22.3066 24.5871L17.7415 29.1521C17.615 29.2786 17.4462 29.3445 17.2757 29.3445C17.1685 29.3445 17.0604 29.3191 16.962 29.2656L5.58106 23.097V35.5499C5.58097 35.5728 5.58211 35.5955 5.5844 35.6179C5.58537 35.6275 5.58721 35.6368 5.58853 35.6462C5.5902 35.6577 5.59152 35.6692 5.5938 35.6805C5.59662 35.695 5.60048 35.7088 5.60417 35.7227C5.60593 35.7292 5.60725 35.7357 5.60918 35.7422C5.61349 35.7564 5.61868 35.7701 5.62386 35.7839C5.62615 35.7901 5.62808 35.7963 5.63063 35.8025C5.63573 35.8148 5.64162 35.8268 5.64742 35.8388C5.65102 35.8462 5.65427 35.8536 5.65814 35.861C5.66341 35.8707 5.66921 35.8802 5.67493 35.8896C5.68038 35.8987 5.68556 35.9078 5.69136 35.9168C5.6962 35.9242 5.70165 35.931 5.70683 35.9381C5.7143 35.9485 5.72168 35.9588 5.72977 35.9688C5.73425 35.9744 5.73926 35.9795 5.74392 35.9848C5.75324 35.9956 5.76255 36.0063 5.77257 36.0164C5.77785 36.0217 5.78347 36.0265 5.78892 36.0315C5.79894 36.041 5.80878 36.0504 5.81942 36.0592C5.8297 36.0678 5.8406 36.0754 5.85132 36.0834C5.85765 36.088 5.86354 36.0929 5.87004 36.0974C5.88894 36.1102 5.90854 36.1219 5.92876 36.1329L22.1864 44.9208C22.2844 44.9737 22.3921 45 22.5 45C22.6078 45 22.7156 44.9736 22.8134 44.9208L39.0711 36.1329C39.0913 36.1219 39.1109 36.1101 39.1298 36.0974C39.1363 36.0929 39.1423 36.088 39.1485 36.0834C39.1593 36.0754 39.1702 36.0677 39.1804 36.0592C39.191 36.0504 39.2009 36.041 39.2109 36.0315C39.2163 36.0265 39.222 36.0217 39.2272 36.0164C39.2372 36.0063 39.2465 35.9956 39.2558 35.9848C39.2605 35.9795 39.2655 35.9744 39.27 35.9688C39.278 35.9589 39.2854 35.9486 39.2929 35.9381C39.2981 35.931 39.3035 35.9242 39.3084 35.9168C39.3142 35.9078 39.3194 35.8988 39.3248 35.8896C39.3305 35.8801 39.3364 35.8707 39.3416 35.861C39.3455 35.8536 39.3487 35.8462 39.3523 35.8388C39.3581 35.8268 39.364 35.8148 39.3691 35.8025C39.3716 35.7963 39.3736 35.7901 39.3759 35.7839C39.3811 35.7702 39.3862 35.7564 39.3905 35.7422C39.3925 35.7358 39.3938 35.7292 39.3956 35.7227C39.3992 35.7088 39.4031 35.695 39.4059 35.6805C39.4082 35.6692 39.4095 35.6577 39.4112 35.6462C39.4125 35.6368 39.4145 35.6275 39.4153 35.6179C39.4176 35.5954 39.4188 35.5727 39.4187 35.5499V23.097L28.038 29.2656Z" fill="#F1E26F"/>
<path d="M22.1545 5.80466C22.3374 5.70631 22.463 5.52605 22.4929 5.32039C22.4973 5.28883 22.4999 5.25719 22.4999 5.22546C22.4999 5.25719 22.5026 5.28883 22.507 5.31951C22.5369 5.52517 22.6625 5.70456 22.8454 5.80379L39.1052 14.5929C39.2045 14.6466 39.3117 14.672 39.4189 14.672C39.3117 14.672 39.2045 14.6984 39.1052 14.7519L22.8454 23.541C22.6625 23.6396 22.5369 23.8196 22.507 24.0253C22.5026 24.057 22.4999 24.0887 22.4999 24.1202C22.4999 24.0887 22.4973 24.057 22.4929 24.0253C22.463 23.8196 22.3374 23.6396 22.1545 23.541L5.89474 14.7519C5.80773 14.7055 5.71456 14.679 5.6214 14.6728C5.71456 14.6667 5.80773 14.6404 5.89474 14.5937L22.1545 5.80466Z" fill="#F0C419"/>
<path d="M44.5922 9.35209C44.6221 9.55776 44.5544 9.76509 44.4076 9.91275L39.8865 14.4771C39.7599 14.6053 39.5903 14.6721 39.4189 14.6721C39.3117 14.6721 39.2045 14.6467 39.1052 14.593L22.8453 5.80394C22.6625 5.70471 22.5369 5.52533 22.507 5.31966C22.5026 5.2889 22.4999 5.25735 22.4999 5.22562C22.4999 5.22474 22.4999 5.22474 22.4999 5.22386C22.4999 5.05081 22.5685 4.88188 22.6933 4.75813L27.2583 0.192993C27.464 -0.0135505 27.7813 -0.0591659 28.0379 0.0797016L44.2538 8.86878C44.4366 8.96704 44.5614 9.14643 44.5922 9.35209Z" fill="#E6BD1E"/>
<path d="M44.4076 19.4322C44.5544 19.5798 44.6221 19.7873 44.5922 19.993C44.5614 20.1978 44.4366 20.377 44.2538 20.4764L28.0379 29.2655C27.9395 29.319 27.8314 29.3444 27.7242 29.3444C27.5537 29.3444 27.3849 29.2785 27.2583 29.152L22.6933 24.5871C22.5685 24.4622 22.4999 24.2935 22.4999 24.1203C22.4999 24.0887 22.5026 24.0571 22.507 24.0253C22.5369 23.8197 22.6625 23.6396 22.8453 23.5411L39.1052 14.752C39.2045 14.6985 39.3117 14.672 39.4189 14.672C39.5903 14.672 39.7599 14.7397 39.8865 14.8672L44.4076 19.4322Z" fill="#F9EA75"/>
<path d="M44.4076 19.4322L39.8865 14.8672C39.7599 14.7397 39.5903 14.672 39.4189 14.672C39.3117 14.672 39.2044 14.6985 39.1051 14.752L37.3884 15.6805C37.4877 15.6269 37.595 15.6005 37.7022 15.6005C37.8736 15.6005 38.0432 15.6682 38.1698 15.7957L42.6909 20.3606C42.8377 20.5083 42.9054 20.7158 42.8755 20.9215C42.8447 21.1263 42.7199 21.3055 42.5371 21.4049L44.2538 20.4764C44.4366 20.377 44.5614 20.1978 44.5921 19.993C44.622 19.7873 44.5543 19.5798 44.4076 19.4322Z" fill="#F3CC31"/>
<path d="M22.4999 5.22381C22.4999 5.22469 22.4999 5.22469 22.4999 5.22556C22.4999 5.25729 22.4973 5.28893 22.4929 5.32049C22.463 5.52615 22.3373 5.70641 22.1545 5.80476L5.89471 14.5938C5.8077 14.6405 5.71454 14.6668 5.62137 14.6729C5.60291 14.6721 5.58358 14.6721 5.56512 14.6729C5.39901 14.6695 5.23641 14.6027 5.11336 14.4788L0.59226 9.91357C0.445483 9.76591 0.377807 9.55858 0.40769 9.35291C0.438451 9.14813 0.563256 8.96874 0.746069 8.86952L16.9619 0.0804374C17.2186 -0.05843 17.5358 -0.0119358 17.7415 0.193729L22.3066 4.75886C22.4314 4.88376 22.499 5.05163 22.4999 5.22381Z" fill="#F3CC31"/>
<path d="M22.4929 24.0254C22.4973 24.0572 22.4999 24.0888 22.4999 24.1204C22.4999 24.2936 22.4314 24.4623 22.3066 24.5871L17.7415 29.1521C17.6149 29.2786 17.4462 29.3445 17.2757 29.3445C17.1685 29.3445 17.0604 29.3191 16.9619 29.2656L0.746069 20.4765C0.563256 20.3771 0.438451 20.1979 0.40769 19.9931C0.377807 19.7874 0.445483 19.5799 0.59226 19.4323L5.11336 14.8673C5.23641 14.7434 5.39901 14.6766 5.56512 14.673C5.57039 14.6739 5.57567 14.6739 5.58094 14.6739C5.59413 14.6739 5.60731 14.6739 5.62137 14.673C5.71454 14.6791 5.8077 14.7056 5.89471 14.7521L22.1545 23.5412C22.3373 23.6397 22.463 23.8198 22.4929 24.0254Z" fill="#F1E26F"/>
<path d="M5.62137 14.6729C5.60731 14.6738 5.59413 14.6738 5.58094 14.6738C5.57567 14.6738 5.5704 14.6738 5.56512 14.6729C5.58358 14.672 5.60292 14.672 5.62137 14.6729Z" fill="#E2AE83"/>
<path d="M39.2285 23.2002C39.2199 23.2168 39.211 23.2229 39.2019 23.2146H39.2018L36.7818 24.5263V36.9783C36.7818 37.0011 36.7808 37.0238 36.7785 37.0462C36.7775 37.0558 36.7757 37.0651 36.7744 37.0745C36.7727 37.086 36.7714 37.0975 36.7691 37.1089C36.7663 37.1233 36.7624 37.1372 36.7587 37.1511C36.757 37.1576 36.7557 37.1641 36.7537 37.1705C36.7494 37.1847 36.7442 37.1984 36.739 37.2122C36.7368 37.2184 36.7348 37.2246 36.7323 37.2308C36.7272 37.2432 36.7213 37.2551 36.7155 37.2672C36.712 37.2745 36.7086 37.2819 36.7048 37.2893C36.6995 37.2991 36.6937 37.3086 36.688 37.318C36.6826 37.3271 36.6773 37.3362 36.6715 37.3451C36.6667 37.3525 36.6613 37.3594 36.6561 37.3664C36.6486 37.3768 36.6412 37.3871 36.6331 37.3971C36.6287 37.4027 36.6236 37.4078 36.619 37.4131C36.6096 37.424 36.6003 37.4346 36.5903 37.4447C36.5851 37.4501 36.5794 37.4548 36.5741 37.4598C36.5641 37.4692 36.5542 37.4787 36.5436 37.4874C36.5333 37.496 36.5224 37.5038 36.5117 37.5116C36.5053 37.5162 36.4995 37.5212 36.4929 37.5256C36.4886 37.5285 36.484 37.5309 36.4797 37.5337L39.0712 36.1328C39.0914 36.1218 39.111 36.11 39.1299 36.0973C39.1364 36.0928 39.1424 36.0879 39.1487 36.0833C39.1595 36.0754 39.1704 36.0676 39.1806 36.0591C39.1912 36.0503 39.201 36.0409 39.2111 36.0314C39.2164 36.0264 39.2221 36.0217 39.2273 36.0163C39.2373 36.0062 39.2467 35.9956 39.256 35.9847C39.2606 35.9794 39.2656 35.9743 39.2701 35.9687C39.2782 35.9588 39.2856 35.9485 39.2931 35.938C39.2982 35.931 39.3037 35.9241 39.3085 35.9167C39.3143 35.9077 39.3195 35.8987 39.325 35.8896C39.3307 35.8801 39.3366 35.8707 39.3418 35.8609C39.3456 35.8535 39.3489 35.8461 39.3525 35.8388C39.3583 35.8267 39.3642 35.8148 39.3693 35.8024C39.3718 35.7962 39.3737 35.79 39.376 35.7838C39.3812 35.7701 39.3864 35.7563 39.3907 35.7421C39.3926 35.7357 39.394 35.7292 39.3957 35.7226C39.3994 35.7088 39.4033 35.6949 39.4061 35.6805C39.4084 35.6691 39.4097 35.6576 39.4114 35.6461C39.4127 35.6367 39.4146 35.6274 39.4155 35.6178C39.4178 35.5953 39.4189 35.5726 39.4188 35.5499V23.097L39.2285 23.2002Z" fill="#F0C419"/>
<path d="M22.3066 24.5871L17.7415 29.1521C17.615 29.2786 17.4462 29.3445 17.2757 29.3445C17.1685 29.3445 17.0604 29.3191 16.9619 29.2656L5.58106 23.097V35.5499C5.58097 35.5728 5.58211 35.5955 5.5844 35.6179C5.58537 35.6275 5.58721 35.6368 5.58853 35.6462C5.5902 35.6577 5.59152 35.6692 5.5938 35.6805C5.59662 35.695 5.60048 35.7088 5.60417 35.7227C5.60593 35.7292 5.60725 35.7357 5.60918 35.7422C5.61349 35.7564 5.61868 35.7701 5.62386 35.7839C5.62615 35.7901 5.62808 35.7963 5.63063 35.8025C5.63573 35.8148 5.64162 35.8268 5.64742 35.8388C5.65102 35.8462 5.65427 35.8536 5.65814 35.861C5.66341 35.8707 5.66921 35.8802 5.67493 35.8896C5.68038 35.8987 5.68556 35.9078 5.69136 35.9168C5.6962 35.9242 5.70165 35.931 5.70683 35.9381C5.7143 35.9485 5.72168 35.9588 5.72977 35.9688C5.73425 35.9744 5.73926 35.9795 5.74392 35.9848C5.75324 35.9956 5.76255 36.0063 5.77257 36.0164C5.77785 36.0217 5.78347 36.0265 5.78892 36.0315C5.79894 36.041 5.80878 36.0504 5.81942 36.0592C5.8297 36.0678 5.8406 36.0754 5.85132 36.0834C5.85765 36.088 5.86354 36.0929 5.87004 36.0974C5.88894 36.1102 5.90854 36.1219 5.92876 36.1329L22.1864 44.9208C22.2844 44.9737 22.3921 45 22.4999 45V24.1204C22.4999 24.2936 22.4314 24.4623 22.3066 24.5871Z" fill="#F9EA75"/>
</g>
<defs>
<clipPath id="clip0">
<rect width="45" height="45" fill="white"/>
</clipPath>
</defs>
</svg>
