<svg width="45" height="45" viewBox="0 0 45 45" fill="none" xmlns="http://www.w3.org/2000/svg">
<g clip-path="url(#clip0)">
<path d="M37.9688 18.1934C40.6385 18.1934 42.8027 16.0291 42.8027 13.3594C42.8027 10.6896 40.6385 8.52539 37.9688 8.52539C35.299 8.52539 33.1348 10.6896 33.1348 13.3594C33.1348 16.0291 35.299 18.1934 37.9688 18.1934Z" fill="#F0C419"/>
<path d="M37.9688 18.1934V8.52539C40.6345 8.52539 42.8027 10.6937 42.8027 13.3594C42.8027 16.0251 40.6345 18.1934 37.9688 18.1934Z" fill="#F29C1F"/>
<path d="M45 27.1134V36.6205C45 38.0909 43.7994 39.2871 42.3229 39.2871H33.0521C32.3244 39.2871 31.7338 38.6965 31.7338 37.9688C31.7338 36.687 31.0254 30.193 31.0254 27.1134C31.0254 23.843 33.7025 21.1816 36.9932 21.1816H39.0322C42.3229 21.1816 45 23.843 45 27.1134Z" fill="#F0C419"/>
<path d="M45 27.1134V36.6205C45 38.0909 43.7994 39.2871 42.3229 39.2871H37.9688V21.1816H39.0322C42.3229 21.1816 45 23.843 45 27.1134Z" fill="#F29C1F"/>
<path d="M7.03125 18.1934C9.70099 18.1934 11.8652 16.0291 11.8652 13.3594C11.8652 10.6896 9.70099 8.52539 7.03125 8.52539C4.36151 8.52539 2.19727 10.6896 2.19727 13.3594C2.19727 16.0291 4.36151 18.1934 7.03125 18.1934Z" fill="#F0C419"/>
<path d="M7.03125 18.1934V8.52539C9.69697 8.52539 11.8652 10.6937 11.8652 13.3594C11.8652 16.0251 9.69697 18.1934 7.03125 18.1934Z" fill="#F29C1F"/>
<path d="M13.9746 27.1134C13.9746 30.2918 13.2662 36.6289 13.2662 37.9688C13.2662 38.6965 12.6756 39.2871 11.9479 39.2871H2.58486C1.15928 39.2871 0 38.1322 0 36.7119V27.1134C0 23.843 2.67715 21.1816 5.96777 21.1816H8.00684C11.2975 21.1816 13.9746 23.843 13.9746 27.1134Z" fill="#F0C419"/>
<path d="M13.9746 27.1134C13.9746 30.2918 13.2662 36.6289 13.2662 37.9688C13.2662 38.6965 12.6756 39.2871 11.9479 39.2871H7.03125V21.1816H8.00684C11.2975 21.1816 13.9746 23.843 13.9746 27.1134Z" fill="#F29C1F"/>
<path d="M22.5 18.1934C26.723 18.1934 30.1465 14.7699 30.1465 10.5469C30.1465 6.32384 26.723 2.90039 22.5 2.90039C18.277 2.90039 14.8535 6.32384 14.8535 10.5469C14.8535 14.7699 18.277 18.1934 22.5 18.1934Z" fill="#FFF185"/>
<path d="M22.5 18.1934V2.90039C26.7161 2.90039 30.1465 6.33076 30.1465 10.5469C30.1465 14.763 26.7161 18.1934 22.5 18.1934Z" fill="#FFCB00"/>
<path d="M34.3652 31.8182V39.0217C34.3652 40.7188 32.9845 42.0996 31.2873 42.0996H13.7127C12.0155 42.0996 10.6348 40.7188 10.6348 39.0217V31.8182C10.6348 25.9532 15.4063 21.1816 21.2713 21.1816H23.7287C29.5937 21.1816 34.3652 25.9532 34.3652 31.8182Z" fill="#FFF185"/>
<path d="M34.3652 31.8182V39.0217C34.3652 40.7188 32.9845 42.0996 31.2873 42.0996H22.5V21.1816H23.7287C29.5937 21.1816 34.3652 25.9532 34.3652 31.8182Z" fill="#FFCB00"/>
</g>
<defs>
<clipPath id="clip0">
<rect width="45" height="45" fill="white"/>
</clipPath>
</defs>
</svg>
