<svg width="45" height="45" viewBox="0 0 45 45" fill="none" xmlns="http://www.w3.org/2000/svg">
<path d="M33.018 10.8377C33.018 13.816 31.95 16.394 29.843 18.5013C27.736 20.6083 25.1577 21.6764 22.1793 21.6764H22.1742C19.1996 21.6753 16.623 20.6073 14.516 18.5013C12.4087 16.394 11.341 13.816 11.341 10.8377C11.341 7.86037 12.4087 5.28202 14.516 3.17505C16.622 1.06876 19.1986 0.00102997 22.1742 0H22.1793C25.1566 0 27.735 1.06808 29.843 3.17505C31.95 5.28202 33.018 7.86037 33.018 10.8377Z" fill="#FFF185"/>
<path d="M41.2355 37.2609C41.2355 39.6106 40.4881 41.5129 39.0159 42.914C37.5609 44.2986 35.6366 45 33.2968 45H11.629C9.28928 45 7.36496 44.2986 5.91099 42.914C4.43779 41.5119 3.69141 39.6099 3.69141 37.2609C3.69141 36.3572 3.72128 35.4632 3.78101 34.6035C3.84178 33.7246 3.96469 32.7681 4.14597 31.7591C4.32861 30.7418 4.56345 29.7802 4.84463 28.9013C5.13645 27.9915 5.53127 27.094 6.01982 26.2344C6.52725 25.3421 7.12326 24.5648 7.79137 23.9248C8.49175 23.255 9.34799 22.717 10.3378 22.325C11.3242 21.9349 12.4176 21.7372 13.5877 21.7372C14.0467 21.7372 14.4913 21.925 15.3482 22.4832C15.8845 22.8331 16.5025 23.2313 17.1847 23.6673C17.7738 24.0429 18.5717 24.3952 19.5581 24.7134C20.425 24.9939 21.3049 25.1505 22.1742 25.1776C22.27 25.1811 22.3658 25.1828 22.4615 25.1828C23.427 25.1828 24.4034 25.0245 25.3661 24.7134C26.3524 24.3952 27.1513 24.0429 27.7401 23.6673C28.4295 23.2269 29.0475 22.8289 29.5759 22.4843C30.4335 21.925 30.8774 21.7372 31.3375 21.7372C32.5065 21.7372 33.6 21.9349 34.587 22.325C35.5768 22.717 36.4331 23.256 37.1328 23.9248C37.8019 24.5648 38.3979 25.3421 38.905 26.2344C39.3939 27.0947 39.7894 27.9915 40.0802 28.9003C40.3617 29.7802 40.5972 30.7418 40.7799 31.7598C40.9601 32.7699 41.0834 33.7264 41.1438 34.6029C41.2046 35.4598 41.2344 36.3538 41.2355 37.2609Z" fill="#FFF185"/>
<path d="M22.1793 21.6764H22.1742V0H22.1793C25.1566 0 27.735 1.06808 29.843 3.17505C31.95 5.28202 33.018 7.86037 33.018 10.8377C33.018 13.816 31.95 16.394 29.843 18.5013C27.736 20.6083 25.1577 21.6764 22.1793 21.6764Z" fill="#F0C419"/>
<path d="M41.2355 37.2609C41.2355 39.6106 40.4881 41.5129 39.0159 42.914C37.5609 44.2986 35.6366 45 33.2968 45H22.1742V25.1776C22.27 25.1811 22.3658 25.1828 22.4616 25.1828C23.427 25.1828 24.4034 25.0245 25.3661 24.7134C26.3524 24.3952 27.1513 24.0429 27.7401 23.6673C28.4295 23.2269 29.0475 22.8289 29.5759 22.4843C30.4335 21.925 30.8774 21.7372 31.3375 21.7372C32.5065 21.7372 33.6 21.9349 34.587 22.325C35.5768 22.717 36.4331 23.256 37.1328 23.9248C37.8019 24.5648 38.3979 25.3421 38.905 26.2344C39.3939 27.0947 39.7894 27.9915 40.0802 28.9003C40.3617 29.7802 40.5972 30.7418 40.7799 31.7598C40.9601 32.7699 41.0834 33.7264 41.1438 34.6029C41.2046 35.4598 41.2345 36.3538 41.2355 37.2609Z" fill="#F0C419"/>
</svg>
